HIERARCHY
ROOT Hips
{
  OFFSET -92.2196 103.634 -192.345
  CHANNELS 6 Xposition Yposition Zposition Zrotation Xrotation Yrotation
  JOINT RightUpLeg
  {
    OFFSET -8.9458 -8.66707 0.101652
    CHANNELS 3 Zrotation Xrotation Yrotation
    JOINT RightLeg
    {
      OFFSET 0 -44.4227 1.3727
      CHANNELS 3 Zrotation Xrotation Yrotation
      JOINT RightFoot
      {
        OFFSET 0.253549 -42.0924 -1.46059
        CHANNELS 3 Zrotation Xrotation Yrotation
        JOINT RightToes
        {
          OFFSET 0.04 -4.41509 8.4991
          CHANNELS 3 Zrotation Xrotation Yrotation
          End Site
          {
            OFFSET -0.08 -0.137448 9.77979
          }
        }
      }
    }
  }
  JOINT Spine
  {
    OFFSET 0 11.8905 0
    CHANNELS 3 Zrotation Xrotation Yrotation
    JOINT Spine1
    {
      OFFSET 0 25.6574 0.127663
      CHANNELS 3 Zrotation Xrotation Yrotation
      JOINT Head
      {
        OFFSET 0 8.73416 0.011341
        CHANNELS 3 Zrotation Xrotation Yrotation
        End Site
        {
          OFFSET -0.29 12.7742 2.51395
        }
      }
      JOINT LeftShoulder1
      {
        OFFSET 8.99 -0.362252 -0.22
        CHANNELS 3 Zrotation Xrotation Yrotation
        JOINT LeftArm
        {
          OFFSET 10.2827 -0.00337999 0.322123
          CHANNELS 3 Zrotation Xrotation Yrotation
          JOINT LeftForeArm
          {
            OFFSET 26.2597 0.099144 -1.42434
            CHANNELS 3 Zrotation Xrotation Yrotation
            JOINT LeftHand
            {
              OFFSET 22.0902 0.085362 1.02216
              CHANNELS 3 Zrotation Xrotation Yrotation
              End Site
              {
                OFFSET 13.419 -0.6 1.50291
              }
            }
          }
        }
      }
      JOINT RightShoulder
      {
        OFFSET -8.99 -0.362252 -0.22
        CHANNELS 3 Zrotation Xrotation Yrotation
        JOINT RightArm
        {
          OFFSET -10.2827 -0.00338 0.322123
          CHANNELS 3 Zrotation Xrotation Yrotation
          JOINT RightForeArm
          {
            OFFSET -26.364 0.099144 -1.42434
            CHANNELS 3 Zrotation Xrotation Yrotation
            JOINT RightHand
            {
              OFFSET -22.0324 0.085362 1.02216
              CHANNELS 3 Zrotation Xrotation Yrotation
              End Site
              {
                OFFSET -13.3284 -0.6 1.50291
              }
            }
          }
        }
      }
    }
  }
  JOINT LeftUpLeg
  {
    OFFSET 8.9458 -8.66707 0.101652
    CHANNELS 3 Zrotation Xrotation Yrotation
    JOINT LeftLeg
    {
      OFFSET 0 -44.4227 1.3727
      CHANNELS 3 Zrotation Xrotation Yrotation
      JOINT LeftFoot
      {
        OFFSET -0.253549 -42.0924 -1.46059
        CHANNELS 3 Zrotation Xrotation Yrotation
        JOINT LeftToes
        {
          OFFSET -0.04 -4.41509 8.4991
          CHANNELS 3 Zrotation Xrotation Yrotation
          End Site
          {
            OFFSET 0.08 -0.047448 9.77979
          }
        }
      }
    }
  }
}
MOTION
Frames:	16
Frame Time:	0.0333333
-92.2199 103.62 -192.347 0.22554 0.255038 -3.75054 1.0815 -5.0058 -6.60911 -1.67717 10.9193 -6.74013 -0.0486166 -5.53789 -0.146777 0.0462048 0.000530889 0.662642 -0.59473 -2.37606 -0.0150931 3.56622 8.41206 -0.96605 0.17685 2.97301 -2.15817 -25.6857 3.89539 -8.68136 -58.8102 -40.3253 -11.8557 80.5692 83.8391 -90.3492 3.19642 9.8199 2.2068 29.5264 4.8294 9.40637 42.4008 -24.6484 7.56898 7.35376 51.8755 5.7875 -11.7946 9.50504 -1.31802 1.74635 -2.31435 2.68533 0.111731 8.40739 7.7139 -2.74251 -5.02728 0.0854788 -1.30529e-009 8.75227e-006 -1.46892e-008 
-92.2657 103.624 -192.403 0.23854 0.236321 -3.58045 1.12459 -5.00727 -6.54905 -1.72717 10.9138 -6.96027 -0.0843718 -5.52611 -0.146774 0.0462048 0.000530889 0.662642 -0.830651 -2.13985 -0.0482294 3.74488 8.28841 -1.05038 0.0195387 2.67728 -2.22194 -25.7312 3.93504 -8.78771 -58.6748 -40.3428 -11.8423 77.1157 83.872 -86.9426 2.75886 9.83579 2.48944 29.438 4.83036 9.44042 42.418 -24.5797 7.79348 7.29998 51.5156 5.97548 -11.4074 9.52666 -1.40524 1.77026 -2.39919 2.69642 0.103798 8.50744 7.53471 -2.81286 -4.98066 0.0854727 -1.30529e-009 8.75227e-006 -1.46892e-008 
-92.3062 103.629 -192.49 0.287747 0.196491 -3.40817 1.11693 -5.08217 -6.53432 -1.77769 11.0679 -7.18582 -0.0482343 -5.55987 -0.146783 0.0462048 0.000530889 0.662642 -1.1725 -1.602 -0.0898438 3.99755 7.87751 -1.15738 -0.0389931 2.47849 -2.18377 -25.6219 3.9422 -8.85039 -58.7647 -40.4793 -11.6988 80.2576 83.8039 -89.9959 2.60216 9.83775 2.39495 29.534 4.87214 9.52265 42.2383 -24.6395 7.97739 7.31836 51.3944 5.97344 -11.8373 9.47899 -1.05944 1.76177 -2.48642 2.69422 0.068852 8.60329 7.38283 -2.77168 -4.90661 0.0854632 -1.30529e-009 8.75227e-006 -1.46892e-008 
-92.3563 103.63 -192.568 0.317007 0.250653 -3.41057 1.09883 -5.21928 -6.53029 -1.73901 11.127 -7.16394 0.0416515 -5.56744 -0.146784 0.0462048 0.000530889 0.662642 -1.47725 -1.35984 -0.0151193 4.30812 7.66321 -1.16654 -0.0123226 2.31104 -2.19139 -25.7108 3.97344 -8.91441 -58.6596 -40.5125 -11.5332 73.9336 83.813 -83.7391 3.35426 9.84489 3.54102 29.3535 4.72885 9.18637 42.5976 -24.7863 8.42813 7.32706 52.0197 5.79593 -11.8233 9.46803 -0.933864 1.79908 -2.63296 2.73202 0.0261523 8.68542 7.34563 -2.6473 -4.90357 0.0854628 -1.30529e-009 8.75227e-006 -1.46892e-008 
-92.4398 103.629 -192.662 0.377612 0.47189 -3.52019 1.08006 -5.53921 -6.52485 -1.68347 11.1504 -7.05669 -0.14007 -5.55168 -0.146781 0.0462048 0.000530889 0.662642 -1.77897 -1.29095 0.100653 4.51428 7.43596 -1.10305 0.229135 2.35645 -2.23563 -25.7375 3.98468 -8.93941 -58.4048 -40.4599 -11.22 76.4697 83.8988 -86.3484 4.27304 9.81885 3.2962 29.4167 4.66186 8.97832 42.6518 -24.7086 8.56541 7.38357 51.6241 5.782 -12.0153 9.49305 -1.27217 1.84481 -2.9378 2.78908 -0.0546091 8.71942 7.42263 -2.56316 -4.8683 0.0854583 -1.30529e-009 8.75227e-006 -1.46892e-008 
-92.4851 103.627 -192.731 0.428604 0.475988 -3.55111 1.04115 -5.6203 -6.56332 -1.66342 11.2167 -7.01662 -0.326225 -5.58475 -0.146789 0.0462048 0.000530889 0.662642 -1.91907 -1.26854 0.171717 4.63735 7.54253 -1.06916 0.249368 2.18185 -2.27264 -25.7418 3.98015 -8.92374 -58.8085 -40.7209 -11.5333 85.0707 84.4066 -94.4734 2.89414 9.82713 2.04316 29.3404 4.62526 8.902 42.6229 -24.4333 8.57133 7.4048 51.5832 5.83857 -12.1885 9.46612 -1.06055 1.81174 -2.90022 2.7501 -0.0473767 8.53431 7.48804 -2.73381 -4.71649 0.0854393 -1.30529e-009 8.75227e-006 -1.46892e-008 
-92.5192 103.626 -192.788 0.322304 0.547072 -3.59502 1.15537 -5.62269 -6.54379 -1.56859 11.0037 -6.99089 -0.285174 -5.44626 -0.146755 0.0462048 0.000530889 0.662642 -1.74951 -1.03898 0.1903 4.67413 7.19984 -1.04622 0.110746 2.20429 -2.21615 -25.9021 3.97877 -8.86029 -58.7368 -40.737 -11.2762 85.5756 84.7432 -94.9012 3.78394 9.82572 2.72188 29.2807 4.64522 8.9786 42.6699 -24.7805 8.35816 7.4816 52.3616 5.51894 -12.1673 9.43279 -0.705351 1.95451 -2.93073 2.81372 -0.0313385 8.37812 7.44696 -2.75976 -4.63012 0.0854288 -1.30529e-009 8.75227e-006 -1.46892e-008 
-92.5362 103.625 -192.848 0.233453 0.468919 -3.58829 1.22808 -5.45465 -6.5662 -1.46903 10.7668 -7.01043 -0.418358 -5.31427 -0.146723 0.0462048 0.000530889 0.662642 -1.2188 -0.646355 0.160445 4.12375 6.85894 -0.914781 0.278358 2.24324 -2.37387 -25.6921 3.9415 -8.82217 -58.6929 -40.6499 -10.977 84.4832 85.0087 -93.8373 4.20084 9.82006 3.16458 29.4931 4.79929 9.33393 42.2021 -24.8168 7.69477 7.50263 51.8808 5.5904 -11.9142 9.49014 -1.20745 2.05383 -2.85736 2.87997 -0.0123679 8.34706 7.37029 -2.71302 -4.64032 0.0862321 -1.30529e-009 8.75227e-006 -1.46892e-008 
-92.586 103.623 -192.904 0.25224 0.420009 -3.49911 1.22893 -5.40941 -6.57415 -1.44818 10.7352 -7.11963 -0.460704 -5.287 -0.146721 0.0462048 0.000530889 0.662642 -1.2009 -0.532173 0.173309 4.08402 6.81896 -0.892275 0.094481 2.20097 -2.53365 -25.7051 3.94821 -8.83831 -58.8292 -40.8829 -10.8907 86.8959 85.1262 -95.9755 4.12749 9.81869 3.17132 29.5028 4.80964 9.35988 42.0999 -25.093 7.45885 7.67521 52.5929 5.22954 -11.7794 9.45476 -0.770944 2.03925 -2.82937 2.84572 0.0346783 8.30604 7.30678 -2.74812 -4.6018 0.0871053 -1.30529e-009 8.75227e-006 -1.46892e-008 
-92.6478 103.621 -192.971 0.239712 0.392289 -3.33835 1.25019 -5.46411 -6.59683 -1.40243 10.863 -7.24016 -0.482546 -5.33492 -0.145792 0.0462048 0.000530889 0.662642 -1.44915 -0.482483 0.17779 4.57622 6.83248 -1.02011 -0.0467113 2.23852 -2.5993 -26.0525 4.00752 -8.89314 -58.8018 -41.1006 -10.911 98.7701 85.2429 -107.506 2.61239 9.83636 2.0101 29.3065 4.7624 9.29718 42.2269 -25.1943 7.27645 7.90733 52.4135 4.91498 -11.8098 9.48073 -1.0627 2.08824 -2.85625 2.84614 0.0426286 8.2944 7.15553 -2.68452 -4.58646 0.0880032 -1.30529e-009 8.75227e-006 -1.46892e-008 
-92.7003 103.618 -193.036 0.26698 0.45404 -3.29084 1.26307 -5.55052 -6.57962 -1.4004 10.8203 -7.33206 -0.525931 -5.28473 -0.144326 0.0462048 0.000530889 0.662642 -1.23506 -0.539303 0.144137 4.25004 6.80382 -0.963103 0.0939439 2.38944 -2.67979 -25.919 4.06714 -9.12671 -58.6604 -41.1765 -10.6592 101.081 85.5639 -109.692 2.37009 9.84061 2.10392 29.6147 4.79527 9.2806 42.0019 -25.339 6.99437 8.05751 52.684 4.65081 -11.5337 9.49867 -1.14669 1.97398 -2.93371 2.59885 0.277636 8.2123 7.30449 -2.85859 -4.50919 0.089178 -1.30529e-009 8.75227e-006 -1.46892e-008 
-92.7656 103.616 -193.087 0.284877 0.542811 -3.2688 1.3058 -5.64451 -6.53958 -1.4103 10.7416 -7.39282 -0.616264 -5.19242 -0.142527 0.0462048 0.000530889 0.662642 -1.25772 -0.554965 0.148073 4.19291 6.70895 -0.94294 0.186191 2.46045 -2.82901 -25.7091 4.08919 -9.27414 -59.0085 -41.3614 -10.6597 102.727 85.946 -110.978 3.76018 9.81487 2.62361 29.8269 4.7875 9.18544 41.7079 -25.0795 6.71365 8.33832 52.2036 4.43558 -11.5518 9.52452 -1.43648 1.98204 -3.02499 2.57656 0.308462 8.12277 7.34239 -2.82319 -4.41003 0.0908973 -1.30529e-009 8.75227e-006 -1.46892e-008 
-92.8325 103.615 -193.143 0.368576 0.510283 -3.19832 1.25663 -5.70923 -6.54571 -1.43013 10.8966 -7.448 -0.541041 -5.27102 -0.14057 0.0462048 0.000530889 0.662642 -1.23768 -0.501863 0.119341 4.06389 6.70546 -0.938244 0.283091 2.54494 -3.00922 -25.4272 4.10696 -9.43841 -59.1335 -41.4382 -10.5114 101.489 86.0174 -109.691 2.49865 9.84324 2.48995 29.8147 4.77411 9.15268 41.7668 -25.0754 6.46161 8.3401 52.2205 4.4481 -11.6104 9.52909 -1.51012 1.87935 -2.96431 2.43995 0.400257 7.95933 7.39677 -2.86389 -4.2759 0.0937576 -1.30529e-009 8.75227e-006 -1.46892e-008 
-92.8769 103.615 -193.185 0.427413 0.454373 -3.25179 1.19802 -5.73705 -6.60024 -1.40303 11.0071 -7.36949 -0.630946 -5.33008 -0.138539 0.0462048 0.000530889 0.662642 -1.21758 -0.423856 0.109371 4.07804 6.58145 -0.948793 0.212411 2.77348 -2.98871 -25.645 4.10881 -9.35992 -58.977 -41.5569 -10.4216 103.589 86.0201 -111.718 2.01999 9.85363 2.41157 29.7251 4.77516 9.1866 41.7853 -25.6115 6.31512 8.54782 53.0831 3.90492 -11.6314 9.46913 -0.863208 1.79332 -2.87111 2.34061 0.487834 7.85437 7.50959 -2.911 -4.2122 0.0974459 -1.30529e-009 8.75227e-006 -1.46892e-008 
-92.9223 103.618 -193.21 0.479901 0.423069 -3.20434 1.15433 -5.75569 -6.62283 -1.38712 11.0769 -7.40196 -0.65688 -5.35289 -0.136557 0.0462048 0.000530889 0.662642 -1.03117 -0.309834 -0.0297796 3.84999 6.29788 -1.01862 0.196033 3.12922 -2.85554 -25.7368 4.08754 -9.2586 -58.8929 -41.7263 -10.2279 107.639 85.9728 -115.648 2.23704 9.84906 2.48311 29.8559 4.83836 9.31538 41.5611 -25.7394 6.04277 8.78975 53.4281 3.51129 -11.5018 9.47744 -0.900717 1.77062 -2.83702 2.33173 0.473849 7.81159 7.45832 -2.97354 -4.19631 0.100019 -1.30529e-009 8.75227e-006 -1.46892e-008 
-93.0149 103.627 -193.256 0.447024 0.365244 -3.20255 1.29988 -5.69089 -6.51071 -1.46959 11.027 -7.49593 -0.644996 -5.32613 -0.134747 0.0462048 0.000530889 0.662642 -0.894358 -0.0292543 -0.117086 3.67537 5.94896 -1.05178 0.170899 3.36744 -2.80797 -25.5879 3.98941 -9.00971 -58.9696 -41.6501 -10.2299 110.669 85.881 -118.679 2.75831 9.83307 2.29965 30.0141 4.87458 9.35993 41.3532 -25.4916 5.82501 8.93437 53.082 3.42839 -11.5966 9.48721 -1.04638 1.88916 -2.80267 2.43756 0.434293 7.8233 7.35988 -2.97403 -4.14029 0.1015 -1.30529e-009 8.75227e-006 -1.46892e-008 
